# xmcd CD database file
#
# Track frame offsets:
#	10430
#	26597
#	46784
#	67911
#	87346
#	106520
#	124420
#	140858
#	157031
#	174818
#	197820
#
# Disc length: 3006 seconds
#
# Revision: 1
# Processed by: cddbd v1.5.1PL0 Copyright (c) Steve Scherf et al.
# Submitted via: CDex 1.51
#
DISCID=990b330b
DTITLE=Don and Susie Newby - Diamond
DYEAR=2000
DGENRE=Christian Rock
TTITLE0=Sailing Away
TTITLE1=Tiny Trace
TTITLE2=Fighter
TTITLE3=Not in All of My Born Days
TTITLE4=Missionary Stereotype
TTITLE5=You are Worthy
TTITLE6=Hold On
TTITLE7=A Life in Forgiven Love
TTITLE8=Rock in the Rapids
TTITLE9=The Greatest of These
TTITLE10=There's a Diamond in There Somewhere
EXTD=YEAR: 2000
EXTT0=
EXTT1=
EXTT2=
EXTT3=
EXTT4=
EXTT5=
EXTT6=
EXTT7=
EXTT8=
EXTT9=
EXTT10=
PLAYORDER=
